<?xml version="1.0" encoding="utf-8"?>
<!-- Generator: Adobe Illustrator 25.2.0, SVG Export Plug-In . SVG Version: 6.00 Build 0)  -->
<svg version="1.1" id="Layer_1" xmlns="http://www.w3.org/2000/svg" xmlns:xlink="http://www.w3.org/1999/xlink" x="0px" y="0px"
	 viewBox="0 0 134.3 30.6" style="enable-background:new 0 0 134.3 30.6;" xml:space="preserve">
<style type="text/css">
	.st0{fill:#FFFFFF;stroke:#164989;stroke-miterlimit:10;}
	.st1{fill:#164989;}
	.st2{fill:#FFFFFF;}
</style>
<path class="st0" d="M118.6,28.1H15c-7.2,0-13-5.8-13-13l0,0c0-7.2,5.8-13,13-13h103.6c7.2,0,13,5.8,13,13l0,0
	C131.6,22.3,125.7,28.1,118.6,28.1z"/>
<g>
	<g>
		<path class="st1" d="M12.5,15.3h-2.3v4H8.9v-10h3.3c1.1,0,2,0.3,2.6,0.8s0.9,1.3,0.9,2.2c0,0.6-0.2,1.2-0.5,1.6
			c-0.3,0.5-0.8,0.8-1.4,1l2.3,4.2v0.1h-1.4L12.5,15.3z M10.2,14.2h2c0.7,0,1.2-0.2,1.6-0.5c0.4-0.3,0.6-0.8,0.6-1.4
			c0-0.6-0.2-1.1-0.6-1.4c-0.4-0.3-0.9-0.5-1.6-0.5h-2V14.2z"/>
		<path class="st1" d="M20.4,19.4c-1,0-1.8-0.3-2.4-1s-0.9-1.5-0.9-2.6v-0.2c0-0.7,0.1-1.4,0.4-2s0.7-1,1.2-1.4
			c0.5-0.3,1-0.5,1.6-0.5c1,0,1.7,0.3,2.2,1s0.8,1.5,0.8,2.7V16h-5c0,0.7,0.2,1.3,0.6,1.8c0.4,0.4,0.9,0.7,1.6,0.7
			c0.4,0,0.8-0.1,1.1-0.3c0.3-0.2,0.6-0.4,0.8-0.7l0.8,0.6C22.5,19,21.6,19.4,20.4,19.4z M20.2,12.8c-0.5,0-0.9,0.2-1.3,0.6
			c-0.3,0.4-0.6,0.9-0.6,1.6H22v-0.1c0-0.6-0.2-1.1-0.5-1.5C21.1,13,20.7,12.8,20.2,12.8z"/>
		<path class="st1" d="M27.7,18.4c0.5,0,0.8-0.1,1.2-0.4c0.3-0.3,0.5-0.6,0.6-1h1.2c0,0.4-0.2,0.8-0.4,1.2c-0.3,0.4-0.6,0.7-1.1,0.9
			s-0.9,0.3-1.4,0.3c-1,0-1.8-0.3-2.4-1s-0.9-1.6-0.9-2.8v-0.2c0-0.7,0.1-1.4,0.4-1.9c0.3-0.6,0.6-1,1.1-1.3s1.1-0.5,1.8-0.5
			c0.8,0,1.5,0.2,2.1,0.7s0.8,1.1,0.9,1.9h-1.2c0-0.5-0.2-0.9-0.5-1.2s-0.7-0.5-1.2-0.5c-0.6,0-1.1,0.2-1.5,0.7s-0.5,1.1-0.5,2v0.2
			c0,0.9,0.2,1.5,0.5,2C26.5,18.2,27,18.4,27.7,18.4z"/>
		<path class="st1" d="M31.7,15.5c0-0.7,0.1-1.4,0.4-2c0.3-0.6,0.7-1,1.2-1.3s1.1-0.5,1.7-0.5c1,0,1.8,0.3,2.4,1
			c0.6,0.7,0.9,1.6,0.9,2.8v0.1c0,0.7-0.1,1.4-0.4,1.9c-0.3,0.6-0.7,1-1.2,1.3s-1.1,0.5-1.8,0.5c-1,0-1.8-0.3-2.4-1
			C32,17.7,31.7,16.8,31.7,15.5L31.7,15.5z M33,15.7c0,0.8,0.2,1.5,0.6,2s0.9,0.7,1.5,0.7s1.2-0.3,1.5-0.8c0.4-0.5,0.6-1.2,0.6-2.1
			c0-0.8-0.2-1.5-0.6-2c-0.4-0.5-0.9-0.8-1.5-0.8s-1.1,0.2-1.5,0.7S33,14.8,33,15.7z"/>
		<path class="st1" d="M41.2,11.9v0.8c0.5-0.6,1.3-1,2.2-1c1,0,1.7,0.4,2.1,1.2c0.2-0.4,0.6-0.6,1-0.9c0.4-0.2,0.9-0.3,1.4-0.3
			c1.6,0,2.4,0.9,2.5,2.6v5h-1.3v-4.9c0-0.5-0.1-0.9-0.4-1.2c-0.2-0.3-0.6-0.4-1.2-0.4c-0.5,0-0.9,0.1-1.2,0.4
			c-0.3,0.3-0.5,0.7-0.5,1.1v4.9h-1.3v-4.8c0-1.1-0.5-1.6-1.6-1.6c-0.8,0-1.4,0.4-1.7,1.1v5.4H40v-7.4C40,11.9,41.2,11.9,41.2,11.9z
			"/>
		<path class="st1" d="M53.5,11.9v0.8c0.5-0.6,1.3-1,2.2-1c1,0,1.7,0.4,2.1,1.2c0.2-0.4,0.6-0.6,1-0.9s0.9-0.3,1.4-0.3
			c1.6,0,2.4,0.9,2.5,2.6v5h-1.3v-4.9c0-0.5-0.1-0.9-0.4-1.2c-0.2-0.3-0.6-0.4-1.2-0.4c-0.5,0-0.9,0.1-1.2,0.4
			c-0.3,0.3-0.5,0.7-0.5,1.1v4.9h-1.3v-4.8c0-1.1-0.5-1.6-1.6-1.6c-0.8,0-1.4,0.4-1.7,1.1v5.4h-1.3v-7.4
			C52.2,11.9,53.5,11.9,53.5,11.9z"/>
		<path class="st1" d="M67.6,19.4c-1,0-1.8-0.3-2.4-1s-0.9-1.5-0.9-2.6v-0.2c0-0.7,0.1-1.4,0.4-2s0.7-1,1.2-1.4
			c0.5-0.3,1-0.5,1.6-0.5c1,0,1.7,0.3,2.2,1s0.8,1.5,0.8,2.7V16h-5c0,0.7,0.2,1.3,0.6,1.8c0.4,0.4,0.9,0.7,1.6,0.7
			c0.4,0,0.8-0.1,1.1-0.3c0.3-0.2,0.6-0.4,0.8-0.7l0.8,0.6C69.8,19,68.9,19.4,67.6,19.4z M67.5,12.8c-0.5,0-0.9,0.2-1.3,0.6
			c-0.3,0.4-0.6,0.9-0.6,1.6h3.7v-0.1c0-0.6-0.2-1.1-0.5-1.5C68.4,13,68,12.8,67.5,12.8z"/>
		<path class="st1" d="M73.2,11.9v0.9c0.6-0.7,1.3-1.1,2.2-1.1c1.6,0,2.4,0.9,2.4,2.6v4.9h-1.3v-4.9c0-0.5-0.1-0.9-0.4-1.2
			c-0.2-0.3-0.6-0.4-1.1-0.4c-0.4,0-0.8,0.1-1.1,0.3c-0.3,0.2-0.6,0.5-0.7,0.9v5.3H72v-7.4L73.2,11.9L73.2,11.9z"/>
		<path class="st1" d="M79.4,15.6c0-1.1,0.3-2,0.8-2.7s1.2-1,2.1-1s1.6,0.3,2.1,0.9v-4h1.3v10.5h-1.2l-0.1-0.8
			c-0.5,0.6-1.2,0.9-2.1,0.9s-1.6-0.4-2.1-1.1C79.7,17.7,79.4,16.8,79.4,15.6L79.4,15.6z M80.7,15.7c0,0.8,0.2,1.5,0.5,2
			s0.8,0.7,1.4,0.7c0.8,0,1.4-0.4,1.8-1.1v-3.4c-0.4-0.7-1-1-1.7-1c-0.6,0-1.1,0.2-1.4,0.7C80.8,14,80.7,14.8,80.7,15.7z"/>
		<path class="st1" d="M90.7,19.4c-1,0-1.8-0.3-2.4-1s-0.9-1.5-0.9-2.6v-0.2c0-0.7,0.1-1.4,0.4-2s0.7-1,1.2-1.4
			c0.5-0.3,1-0.5,1.6-0.5c1,0,1.7,0.3,2.2,1s0.8,1.5,0.8,2.7V16h-5c0,0.7,0.2,1.3,0.6,1.8c0.4,0.4,0.9,0.7,1.6,0.7
			c0.4,0,0.8-0.1,1.1-0.3c0.3-0.2,0.6-0.4,0.8-0.7l0.8,0.6C92.8,19,91.9,19.4,90.7,19.4z M90.5,12.8c-0.5,0-0.9,0.2-1.3,0.6
			c-0.3,0.4-0.6,0.9-0.6,1.6h3.7v-0.1c0-0.6-0.2-1.1-0.5-1.5C91.5,13,91,12.8,90.5,12.8z"/>
		<path class="st1" d="M94.7,15.6c0-1.1,0.3-2,0.8-2.7s1.2-1,2.1-1s1.6,0.3,2.1,0.9v-4h1.3v10.5h-1.2l-0.1-0.8
			c-0.5,0.6-1.2,0.9-2.1,0.9S96,19,95.5,18.3C95,17.7,94.7,16.8,94.7,15.6L94.7,15.6z M96,15.7c0,0.8,0.2,1.5,0.5,2s0.8,0.7,1.4,0.7
			c0.8,0,1.4-0.4,1.8-1.1v-3.4c-0.4-0.7-1-1-1.7-1c-0.6,0-1.1,0.2-1.4,0.7C96.1,14,96,14.8,96,15.7z"/>
	</g>
</g>
<circle class="st1" cx="118.7" cy="14.8" r="13.3"/>
<g>
	<polygon class="st1" points="118.7,6.3 121.5,11.9 127.6,12.8 123.2,17.1 124.2,23.3 118.7,20.4 113.2,23.3 114.2,17.1 109.8,12.8 
		115.9,11.9 	"/>
	<g>
		<path class="st2" d="M118.1,6.7c0.8,1.7,1.6,3.3,2.5,5c0.1,0.2,0.2,0.4,0.3,0.6c0.2,0.3,0.5,0.4,0.8,0.4c1,0.2,2.1,0.3,3.1,0.5
			c0.9,0.1,1.8,0.3,2.7,0.4c-0.1-0.4-0.2-0.8-0.3-1.3c-1.3,1.3-2.7,2.6-4,3.9c-0.2,0.1-0.3,0.3-0.5,0.5c-0.3,0.4-0.2,0.7-0.1,1.1
			c0.2,1,0.4,2.1,0.5,3.1c0.2,0.9,0.3,1.8,0.5,2.6c0.4-0.3,0.7-0.6,1.1-0.8c-1.6-0.9-3.3-1.7-4.9-2.6c-0.2-0.1-0.4-0.2-0.6-0.3
			c-0.4-0.2-0.7,0-1.1,0.2c-0.9,0.5-1.9,1-2.8,1.5c-0.8,0.4-1.6,0.8-2.4,1.2c0.4,0.3,0.7,0.6,1.1,0.8c0.3-1.8,0.6-3.7,0.9-5.5
			c0-0.2,0.1-0.4,0.1-0.6c0-0.5-0.2-0.7-0.5-1c-0.8-0.7-1.5-1.5-2.3-2.2c-0.6-0.6-1.3-1.2-1.9-1.9c-0.1,0.4-0.2,0.8-0.3,1.3
			c1.8-0.3,3.7-0.5,5.5-0.8c0.2,0,0.5,0,0.7-0.1c0.4-0.1,0.5-0.4,0.6-0.7c0.5-0.9,0.9-1.9,1.4-2.8c0.4-0.8,0.8-1.6,1.2-2.4
			c0.4-0.9-0.9-1.6-1.3-0.8c-0.9,1.9-1.8,3.7-2.8,5.6c0.1-0.1,0.3-0.2,0.4-0.3c-2.1,0.3-4.1,0.6-6.2,0.9c-0.6,0.1-0.7,0.9-0.3,1.3
			c1.5,1.5,3,2.9,4.5,4.4c-0.1-0.2-0.1-0.5-0.2-0.7c-0.4,2-0.7,4.1-1.1,6.1c-0.1,0.6,0.5,1.2,1.1,0.8c1.8-1,3.7-1.9,5.5-2.9
			c-0.3,0-0.5,0-0.8,0c1.8,1,3.7,1.9,5.5,2.9c0.6,0.3,1.2-0.2,1.1-0.8c-0.4-2-0.7-4.1-1.1-6.1c-0.1,0.2-0.1,0.5-0.2,0.7
			c1.5-1.5,3-2.9,4.5-4.4c0.4-0.4,0.2-1.2-0.3-1.3c-2.1-0.3-4.1-0.6-6.2-0.9c0.1,0.1,0.3,0.2,0.4,0.3c-0.9-1.9-1.8-3.7-2.8-5.6
			C118.9,5.1,117.6,5.8,118.1,6.7z"/>
	</g>
</g>
</svg>
