<?xml version="1.0" encoding="utf-8"?>
<!-- Generator: Adobe Illustrator 25.2.0, SVG Export Plug-In . SVG Version: 6.00 Build 0)  -->
<svg version="1.1" id="Layer_1" xmlns="http://www.w3.org/2000/svg" xmlns:xlink="http://www.w3.org/1999/xlink" x="0px" y="0px"
	 viewBox="0 0 134.3 30.6" style="enable-background:new 0 0 134.3 30.6;" xml:space="preserve">
<style type="text/css">
	.st0{fill:#FFFFFF;stroke:#164989;stroke-miterlimit:10;}
	.st1{fill:#164989;}
	.st2{fill:#FFFFFF;}
</style>
<path class="st0" d="M118.6,28.1H15c-7.2,0-13-5.8-13-13l0,0c0-7.2,5.8-13,13-13h103.6c7.2,0,13,5.8,13,13l0,0
	C131.6,22.3,125.7,28.1,118.6,28.1z"/>
<g>
	<ellipse class="st1" cx="118.7" cy="14.9" rx="13.3" ry="13.2"/>
	<g>
		<g>
			<path class="st2" d="M124.8,8.2c-2.7,4.3-5.4,8.4-8.1,12.7c-0.4,0.6-0.8,1.2-1.2,1.8c0.7-0.1,1.3-0.2,2-0.3
				c-2.1-2.4-4.2-4.9-6.4-7.3c-1.1-1.2-2.8,0.6-1.8,1.8c2.1,2.4,4.2,4.9,6.4,7.3c0.5,0.6,1.6,0.4,2-0.3c2.7-4.3,5.4-8.4,8.1-12.7
				c0.4-0.6,0.8-1.2,1.2-1.8C127.8,8.1,125.6,6.8,124.8,8.2L124.8,8.2z"/>
		</g>
	</g>
</g>
<g>
	<path class="st1" d="M31.7,14.9c-1.1-0.3-1.9-0.7-2.5-1.2s-0.8-1-0.8-1.7c0-0.8,0.3-1.4,0.9-1.9c0.6-0.5,1.4-0.8,2.4-0.8
		c0.7,0,1.3,0.1,1.8,0.4s1,0.6,1.2,1.1s0.4,1,0.4,1.5h-1.3c0-0.6-0.2-1.1-0.6-1.4c-0.4-0.3-0.9-0.5-1.6-0.5c-0.6,0-1.2,0.1-1.5,0.4
		c-0.4,0.3-0.5,0.7-0.5,1.2c0,0.4,0.2,0.8,0.5,1c0.3,0.2,0.9,0.5,1.8,0.8c0.9,0.3,1.5,0.5,1.9,0.8c0.4,0.3,0.8,0.6,1,1
		c0.2,0.4,0.6,0.7,0.6,1.2c0,0.8-0.3,1.5-0.9,1.9c-0.6,0.4-1.5,0.7-2.5,0.7c-0.7,0-1.3-0.1-1.9-0.4c-0.6-0.3-1-0.6-1.4-1.1
		c-0.3-0.5-0.5-1-0.5-1.6h1.2c0,0.6,0.2,1.1,0.7,1.4s1,0.5,1.8,0.5c0.7,0,1.2-0.1,1.6-0.4c0.4-0.3,0.6-0.7,0.6-1.2s-0.2-0.9-0.5-1.1
		S32.6,15.2,31.7,14.9z"/>
	<path class="st1" d="M38.6,10.2V12H40v1h-1.4v4.6c0,0.3,0.1,0.5,0.2,0.7c0.1,0.2,0.3,0.2,0.6,0.2c0.1,0,0.3,0,0.6-0.1v1
		c-0.3,0.1-0.7,0.1-1,0.1c-0.6,0-1-0.2-1.3-0.5s-0.4-0.8-0.4-1.5v-4.6H36v-1h1.3v-1.8L38.6,10.2L38.6,10.2z"/>
	<path class="st1" d="M46,19.3c-0.1-0.1-0.1-0.4-0.2-0.8c-0.6,0.6-1.3,0.9-2.1,0.9c-0.7,0-1.3-0.2-1.8-0.6s-0.7-0.9-0.7-1.6
		c0-0.8,0.3-1.4,0.9-1.8c0.6-0.4,1.4-0.6,2.5-0.6h1.2v-0.6c0-0.4-0.1-0.8-0.4-1.1s-0.7-0.3-1.2-0.3s-0.8,0.1-1.1,0.3
		c-0.3,0.2-0.5,0.5-0.5,0.8h-1.3c0-0.4,0.1-0.7,0.4-1.1s0.6-0.6,1.1-0.8s0.9-0.3,1.5-0.3c0.9,0,1.5,0.2,2,0.6s0.7,1,0.8,1.8v3.4
		c0,0.7,0.1,1.2,0.3,1.6v0.1L46,19.3L46,19.3z M43.9,18.4c0.4,0,0.8-0.1,1.1-0.3c0.3-0.2,0.6-0.5,0.8-0.8v-1.5h-1
		c-1.5,0-2.3,0.5-2.3,1.4c0,0.4,0.1,0.7,0.4,0.9C43.1,18.3,43.5,18.4,43.9,18.4z"/>
	<path class="st1" d="M50.2,12v0.9c0.6-0.7,1.3-1.1,2.2-1.1c1.6,0,2.4,0.9,2.4,2.6v4.9h-1.3v-4.9c0-0.5-0.1-0.9-0.4-1.2
		s-0.6-0.4-1.1-0.4c-0.4,0-0.8,0.1-1.1,0.3c-0.3,0.2-0.6,0.5-0.7,0.9v5.3h-1.3v-7.4L50.2,12L50.2,12z"/>
	<path class="st1" d="M56.4,15.6c0-1.1,0.3-2,0.8-2.7s1.2-1,2.1-1c0.9,0,1.6,0.3,2.1,0.9v-4h1.3v10.5h-1.2l-0.1-0.8
		c-0.5,0.6-1.2,0.9-2.1,0.9c-0.9,0-1.6-0.4-2.1-1.1C56.7,17.7,56.4,16.8,56.4,15.6L56.4,15.6z M57.7,15.7c0,0.8,0.2,1.5,0.5,2
		s0.8,0.7,1.4,0.7c0.8,0,1.4-0.4,1.8-1.1v-3.4c-0.4-0.7-1-1-1.7-1c-0.6,0-1.1,0.2-1.4,0.7S57.7,14.8,57.7,15.7z"/>
	<path class="st1" d="M69.2,19.3c-0.1-0.1-0.1-0.4-0.2-0.8c-0.6,0.6-1.3,0.9-2.1,0.9c-0.7,0-1.3-0.2-1.8-0.6s-0.7-0.9-0.7-1.6
		c0-0.8,0.3-1.4,0.9-1.8c0.6-0.4,1.4-0.6,2.5-0.6H69v-0.6c0-0.4-0.1-0.8-0.4-1.1s-0.6-0.3-1.2-0.3c-0.5,0-0.8,0.1-1.1,0.3
		c-0.3,0.2-0.5,0.5-0.5,0.8h-1.3c0-0.4,0.1-0.7,0.4-1.1s0.6-0.6,1.1-0.8s0.9-0.3,1.5-0.3c0.9,0,1.5,0.2,2,0.6s0.7,1,0.8,1.8v3.4
		c0,0.7,0.1,1.2,0.3,1.6v0.1L69.2,19.3L69.2,19.3z M67.1,18.4c0.4,0,0.8-0.1,1.1-0.3s0.6-0.5,0.8-0.8v-1.5h-1
		c-1.5,0-2.3,0.5-2.3,1.4c0,0.4,0.1,0.7,0.4,0.9C66.4,18.3,66.7,18.4,67.1,18.4z"/>
	<path class="st1" d="M75.8,13.1c-0.2,0-0.4,0-0.6,0c-0.8,0-1.4,0.4-1.7,1.1v5.3h-1.3v-7.4h1.2V13c0.4-0.7,1-1,1.8-1
		c0.2,0,0.4,0,0.6,0.1V13.1z"/>
	<path class="st1" d="M76.7,15.6c0-1.1,0.3-2,0.8-2.7s1.2-1,2.1-1c0.9,0,1.6,0.3,2.1,0.9v-4H83v10.5h-1.2l-0.1-0.8
		c-0.5,0.6-1.2,0.9-2.1,0.9c-0.9,0-1.6-0.4-2.1-1.1C77,17.7,76.7,16.8,76.7,15.6L76.7,15.6z M78,15.7c0,0.8,0.2,1.5,0.5,2
		c0.3,0.5,0.8,0.7,1.4,0.7c0.8,0,1.4-0.4,1.8-1.1v-3.4c-0.4-0.7-1-1-1.7-1c-0.6,0-1.1,0.2-1.4,0.7S78,14.8,78,15.7z"/>
</g>
</svg>
