<?xml version="1.0" encoding="utf-8"?>
<!-- Generator: Adobe Illustrator 25.2.0, SVG Export Plug-In . SVG Version: 6.00 Build 0)  -->
<svg version="1.1" id="Layer_1" xmlns="http://www.w3.org/2000/svg" xmlns:xlink="http://www.w3.org/1999/xlink" x="0px" y="0px"
	 viewBox="0 0 91 130" style="enable-background:new 0 0 91 130;" xml:space="preserve">
<style type="text/css">
	.st0{fill:#FFFFFF;}
	.st1{fill:#E3E2E1;}
	.st2{fill:#808080;}
	.st3{fill:#FBE00B;stroke:#808080;stroke-miterlimit:10;}
</style>
<g>
	<ellipse class="st1" cx="45" cy="118" rx="41" ry="9"/>
	<path class="st0" d="M45.4,19c13.7,0,24.5,10.8,24.5,24.4c0,13.5-11,24.4-24.6,24.4c-13.5,0-24.3-11-24.2-24.7
		C21.3,29.7,32,19,45.4,19z"/>
	<path class="st2" d="M59.6,33.7c-0.2-0.1-0.4-0.3-0.6-0.5c-0.2-0.1-0.5-0.1-0.6,0c-5.4,5.3-10.8,10.6-16.2,16
		c-0.2,0.2-0.5,0.2-0.7,0c-2.9-2.6-5.3-4.9-7.8-7.1c-0.2-0.2-0.5-0.2-0.7,0L32.3,43c-0.2,0.2-0.2,0.5,0,0.7c2.6,2.6,5.1,5.4,7.9,7.8
		c0.6,0.5,1.7,1.6,3.3-0.4l16.1-16.6C59.8,34.2,59.8,33.9,59.6,33.7z"/>
	<path class="st3" d="M45.8,117.6c-1-0.8-2.8-3.5-3.3-4.1c-12.9-18.3-24.6-34.2-33.3-55C2.6,42.6,5,28,17,15.6
		C28.7,3.5,43.1,0.8,58.9,5.8C78.4,12,90.1,34.3,83.3,53.5c-3.7,10.3-8.9,20.1-14.4,29.6c-5.6,9.8-12.2,19-18.5,28.5
		C49.1,113.6,47.4,115.5,45.8,117.6z M45.4,19C32,19,21.3,29.7,21.2,43.1C21,56.8,31.8,67.8,45.3,67.8c13.6,0,24.6-10.9,24.6-24.4
		C69.9,29.9,59,19.1,45.4,19z"/>
</g>
</svg>
