<svg width="33" height="33" viewBox="0 0 33 33" fill="none" xmlns="http://www.w3.org/2000/svg">
<circle cx="16.5" cy="16.5" r="16.5" fill="#204F96"/>
<path d="M15.762 26V11.26C15.7473 11.2747 15.5787 11.3187 15.256 11.392C14.948 11.4653 14.596 11.5387 14.2 11.612C13.804 11.6853 13.452 11.7513 13.144 11.81C12.836 11.8687 12.6747 11.898 12.66 11.898V10.116C12.9093 10.0573 13.1953 9.97667 13.518 9.874C13.8553 9.77133 14.1927 9.64667 14.53 9.5C14.882 9.35333 15.212 9.17 15.52 8.95C15.8427 8.73 16.114 8.47333 16.334 8.18H18.116V26H15.762Z" fill="#F1F1F1"/>
</svg>
