<svg width="33" height="33" viewBox="0 0 33 33" fill="none" xmlns="http://www.w3.org/2000/svg">
<circle cx="16.5" cy="16.5" r="16.5" fill="#204F96"/>
<path d="M12.902 26V24.328L17.434 17.266C17.7713 16.738 18.0793 16.2467 18.358 15.792C18.6513 15.3373 18.886 14.8607 19.062 14.362C19.2527 13.8487 19.348 13.262 19.348 12.602C19.348 11.7807 19.216 11.1353 18.952 10.666C18.688 10.1967 18.226 9.962 17.566 9.962C17.0087 9.962 16.576 10.116 16.268 10.424C15.96 10.732 15.7473 11.1353 15.63 11.634C15.5127 12.1327 15.454 12.668 15.454 13.24V13.834H13.1V13.218C13.1 12.1473 13.2393 11.2307 13.518 10.468C13.8113 9.69067 14.2733 9.08933 14.904 8.664C15.5493 8.23867 16.4 8.026 17.456 8.026C18.8933 8.026 19.964 8.43667 20.668 9.258C21.372 10.0647 21.724 11.1867 21.724 12.624C21.724 13.3867 21.6287 14.054 21.438 14.626C21.262 15.198 21.0273 15.7333 20.734 16.232C20.4407 16.7307 20.118 17.244 19.766 17.772L15.674 24.02H21.306V26H12.902Z" fill="#F1F1F1"/>
</svg>
