<?xml version="1.0" encoding="utf-8"?>
<!-- Generator: Adobe Illustrator 25.2.0, SVG Export Plug-In . SVG Version: 6.00 Build 0)  -->
<svg version="1.1" id="Layer_1" xmlns="http://www.w3.org/2000/svg" xmlns:xlink="http://www.w3.org/1999/xlink" x="0px" y="0px"
	 viewBox="0 0 60.7 60.7" style="enable-background:new 0 0 60.7 60.7;" xml:space="preserve">
<g>
	<path d="M56.9,21.7c3.7,11.5-0.4,24.1-10.1,31.2C37,60,23.7,60,14,52.9C4.2,45.8,0.1,33.2,3.8,21.7C7.6,10.3,18.3,2.5,30.3,2.5
		S53.1,10.3,56.9,21.7z M30.3,5c-11,0-20.7,7.1-24.1,17.5C2.8,33,6.6,44.4,15.4,50.9c8.9,6.5,20.9,6.5,29.8,0S57.8,33,54.4,22.5
		C51.1,12.1,41.3,5,30.3,5z"/>
</g>
<g>
	<g>
		<path d="M45.2,45.2L33.6,28.3l-1.3-1.9l-8.3-12.1l-0.7-1H13l2.5,3.6L26.6,33l1.3,1.9l8.9,12.9l0.7,1h10.2L45.2,45.2z M38.7,46.5
			l-9.2-13.4l-1.3-1.9L17.4,15.6H22l8.7,12.6l1.3,1.9l11.3,16.4H38.7z"/>
		<polygon points="28.1,31.2 29.5,33.1 27.9,34.9 15.9,48.8 13,48.8 26.6,33 		"/>
		<polygon points="46.5,13.3 33.6,28.3 32,30.1 30.7,28.2 32.3,26.4 41,16.2 43.5,13.3 		"/>
	</g>
</g>
</svg>
