<svg width="16" height="16" viewBox="0 0 16 16" fill="none" xmlns="http://www.w3.org/2000/svg">
<path d="M1.63918 13.4517C1.14628 13.4517 0.746704 13.0521 0.746704 12.5592L0.746704 3.13247C0.746704 2.63956 1.14628 2.23999 1.63918 2.23999H5.87859C6.21979 2.23999 6.53113 2.43452 6.68072 2.74118L7.30694 4.02494H13.0182C13.5111 4.02494 13.9107 4.42451 13.9107 4.91741V6.36769" stroke="#204F96" stroke-width="0.593067"/>
<path d="M3.31182 6.44106H14.7181C15.0796 6.44106 15.3452 6.7801 15.2588 7.13106L13.7827 13.122C13.7214 13.3708 13.4983 13.5456 13.2421 13.5456H1.8358C1.47434 13.5456 1.2087 13.2066 1.29516 12.8556L2.77119 6.86467C2.83248 6.6159 3.05562 6.44106 3.31182 6.44106Z" stroke="#204F96" stroke-width="0.593067"/>
</svg>
