<?xml version="1.0" encoding="utf-8"?>
<!-- Generator: Adobe Illustrator 21.0.1, SVG Export Plug-In . SVG Version: 6.00 Build 0)  -->
<svg version="1.1" id="Search" xmlns="http://www.w3.org/2000/svg" xmlns:xlink="http://www.w3.org/1999/xlink" x="0px" y="0px"
	 viewBox="0 0 54 54" style="enable-background:new 0 0 54 54;" xml:space="preserve">
<style type="text/css">
	.st0{fill:#0571B1;}
	.st1{fill:#FFFFFF;}
</style>
<circle class="st0" cx="27" cy="27" r="27"/>
<path class="st1" d="M39.7,44.2c-0.9,0-1.8-0.3-2.5-1l-6.4-6.4c-2,1.1-4.3,1.6-6.6,1.6c-7.9,0-14.3-6.4-14.3-14.3
	c0-7.9,6.4-14.3,14.3-14.3c7.9,0,14.3,6.4,14.3,14.3c0,2.3-0.6,4.7-1.7,6.8l6.3,6.3c0.7,0.7,1.1,1.6,1.1,2.6c0,1-0.4,1.9-1.1,2.6
	L42.2,43C41.6,43.8,40.7,44.2,39.7,44.2z M31.1,34.3l7.4,7.5c0.2,0.2,0.6,0.5,1.2,0.5c0.4,0,0.8-0.2,1-0.4l0.1-0.1l0.8-0.8
	c0.3-0.3,0.5-0.7,0.5-1.2c0-0.4-0.2-0.8-0.5-1.2l-7.4-7.4l0.4-0.7c1.2-2,1.8-4.2,1.8-6.4c0-6.8-5.5-12.3-12.3-12.3
	s-12.3,5.5-12.3,12.3c0,6.8,5.5,12.3,12.3,12.3c2.2,0,4.4-0.6,6.3-1.7L31.1,34.3z"/>
<path class="st1" d="M23.9,32.2c-4.6,0-8.3-3.7-8.3-8.3s3.7-8.3,8.3-8.3s8.3,3.7,8.3,8.3S28.5,32.2,23.9,32.2z M23.9,17.6
	c-3.5,0-6.3,2.8-6.3,6.3s2.8,6.3,6.3,6.3s6.3-2.8,6.3-6.3S27.4,17.6,23.9,17.6z"/>
</svg>
