<svg width="33" height="33" viewBox="0 0 33 33" fill="none" xmlns="http://www.w3.org/2000/svg">
<circle cx="16.5" cy="16.5" r="16.5" fill="#204F96"/>
<path d="M17.236 26.198C16.268 26.198 15.4613 26.0147 14.816 25.648C14.1707 25.2813 13.6867 24.7533 13.364 24.064C13.0413 23.3747 12.88 22.5607 12.88 21.622V21.028H15.212C15.212 21.0867 15.212 21.1527 15.212 21.226C15.212 21.2847 15.212 21.3507 15.212 21.424C15.2267 21.952 15.2853 22.4287 15.388 22.854C15.5053 23.2793 15.7033 23.6167 15.982 23.866C16.2753 24.1153 16.6933 24.24 17.236 24.24C17.808 24.24 18.2407 24.108 18.534 23.844C18.8273 23.5653 19.0253 23.1767 19.128 22.678C19.2307 22.1793 19.282 21.6073 19.282 20.962C19.282 20.0233 19.106 19.2607 18.754 18.674C18.4167 18.0727 17.8153 17.7427 16.95 17.684C16.906 17.6693 16.8473 17.662 16.774 17.662C16.7153 17.662 16.664 17.662 16.62 17.662V15.308C16.664 15.308 16.7153 15.308 16.774 15.308C16.8327 15.308 16.884 15.308 16.928 15.308C17.764 15.2787 18.3653 15.0587 18.732 14.648C19.0987 14.2373 19.282 13.5553 19.282 12.602C19.282 11.7953 19.1427 11.15 18.864 10.666C18.6 10.182 18.0647 9.94 17.258 9.94C16.4513 9.94 15.916 10.2113 15.652 10.754C15.388 11.282 15.2413 11.964 15.212 12.8C15.212 12.8587 15.212 12.9247 15.212 12.998C15.212 13.0567 15.212 13.1153 15.212 13.174H12.88V12.58C12.88 11.6267 13.0413 10.8127 13.364 10.138C13.6867 9.46333 14.1707 8.94267 14.816 8.576C15.476 8.20933 16.29 8.026 17.258 8.026C18.2407 8.026 19.0547 8.20933 19.7 8.576C20.3453 8.94267 20.8293 9.47067 21.152 10.16C21.4747 10.8347 21.636 11.6487 21.636 12.602C21.636 13.6727 21.4013 14.5307 20.932 15.176C20.4773 15.8213 19.8613 16.2613 19.084 16.496C19.6267 16.6573 20.0813 16.936 20.448 17.332C20.8293 17.728 21.1227 18.234 21.328 18.85C21.5333 19.4513 21.636 20.1553 21.636 20.962C21.636 22.018 21.4893 22.942 21.196 23.734C20.9027 24.5113 20.4333 25.12 19.788 25.56C19.1427 25.9853 18.292 26.198 17.236 26.198Z" fill="#F1F1F1"/>
</svg>
